<?xml version="1.0" encoding="UTF-8" standalone="no"?>
<svg
   height="30px"
   viewBox="0 -960 960 960"
   width="30px"
   fill="#e8eaed"
   version="1.1"
   id="svg4"
   sodipodi:docname="download_icon.svg"
   inkscape:version="1.2.2 (732a01da63, 2022-12-09)"
   xmlns:inkscape="http://www.inkscape.org/namespaces/inkscape"
   xmlns:sodipodi="http://sodipodi.sourceforge.net/DTD/sodipodi-0.dtd"
   xmlns="http://www.w3.org/2000/svg"
   xmlns:svg="http://www.w3.org/2000/svg">
  <defs
     id="defs8" />
  <sodipodi:namedview
     id="namedview6"
     pagecolor="#ffffff"
     bordercolor="#000000"
     borderopacity="0.25"
     inkscape:showpageshadow="2"
     inkscape:pageopacity="0.0"
     inkscape:pagecheckerboard="0"
     inkscape:deskcolor="#d1d1d1"
     showgrid="false"
     inkscape:zoom="36.541667"
     inkscape:cx="11.986317"
     inkscape:cy="8.4561003"
     inkscape:window-width="1920"
     inkscape:window-height="1057"
     inkscape:window-x="-8"
     inkscape:window-y="-8"
     inkscape:window-maximized="1"
     inkscape:current-layer="svg4" />
  <path
     d="m 243.96477,-237.7774 476.06855,-2.90345 -0.5807,-95.21371 -476.06855,2.90345 z m 237.16323,-144.27229 189.26605,-191.5888 -67.05609,-66.24311 -75.72093,74.25517 -1.20493,-197.56845 -95.21371,0.58069 1.20493,197.56844 -76.621,-73.32607 -66.24311,67.05609 z m 2.32276,380.8548441 Q 384.66654,-0.5923818 297.55538,-37.552901 210.44423,-74.513421 145.783,-138.39071 81.121791,-202.268 43.101511,-288.92186 5.081232,-375.57573 4.4787667,-474.35996 3.8763015,-573.14418 40.836823,-660.25534 q 36.960519,-87.11115 100.837797,-151.77238 63.87729,-64.66121 150.53115,-102.68149 86.65388,-38.02028 185.43811,-38.62275 98.78421,-0.60246 185.89537,36.35806 87.11116,36.96052 151.77238,100.8378 64.66122,63.87729 102.6815,150.53115 38.02028,86.65388 38.62274,185.43811 0.60246,98.78421 -36.35806,185.89537 -36.96051,87.11116 -100.8378,151.77238 -63.87729,64.66122 -150.53115,102.6815 -86.65387,38.02028 -185.4381,38.6227441 z M 482.87007,-96.408556 Q 642.35304,-97.381216 752.36393,-208.7422 862.37481,-320.10319 861.40216,-479.58616 860.4295,-639.06913 749.06852,-749.08001 637.70753,-859.0909 478.22456,-858.11825 q -159.48297,0.97266 -269.49385,112.33364 -110.010884,111.361 -109.038234,270.84396 0.972664,159.48297 112.333634,269.49386 111.361,110.010884 270.84396,109.038234 z M 480.54732,-477.2634 Z"
     id="path2"
     style="stroke-width:1.19019;fill:#12f800;fill-opacity:1;opacity:1" />
</svg>
