<?xml version="1.0" encoding="UTF-8" standalone="no"?>
<svg
   height="24px"
   viewBox="0 -960 960 960"
   width="24px"
   fill="#e8eaed"
   version="1.1"
   id="svg4"
   sodipodi:docname="error_icon.svg"
   inkscape:version="1.2.2 (732a01da63, 2022-12-09)"
   xmlns:inkscape="http://www.inkscape.org/namespaces/inkscape"
   xmlns:sodipodi="http://sodipodi.sourceforge.net/DTD/sodipodi-0.dtd"
   xmlns="http://www.w3.org/2000/svg"
   xmlns:svg="http://www.w3.org/2000/svg">
  <defs
     id="defs8" />
  <sodipodi:namedview
     id="namedview6"
     pagecolor="#ffffff"
     bordercolor="#000000"
     borderopacity="0.25"
     inkscape:showpageshadow="2"
     inkscape:pageopacity="0.0"
     inkscape:pagecheckerboard="0"
     inkscape:deskcolor="#d1d1d1"
     showgrid="false"
     inkscape:zoom="36.541667"
     inkscape:cx="11.986317"
     inkscape:cy="18.335234"
     inkscape:window-width="1920"
     inkscape:window-height="1057"
     inkscape:window-x="-8"
     inkscape:window-y="-8"
     inkscape:window-maximized="1"
     inkscape:current-layer="svg4" />
  <path
     d="m 480,-243.32953 q 20.21003,0 33.88153,-13.60856 13.67149,-13.60854 13.67149,-33.72553 0,-20.117 -13.67149,-33.72555 -13.6715,-13.60855 -33.88153,-13.60855 -20.21003,0 -33.88153,13.60855 -13.67149,13.60855 -13.67149,33.72555 0,20.11699 13.67149,33.72553 13.6715,13.60856 33.88153,13.60856 z m -47.55302,-189.33638 h 95.10604 V -716.67047 H 432.44698 Z M 480,-6.659065 q -98.67252,0 -185.45678,-37.275598 Q 207.75896,-81.210262 143.56238,-145.11129 79.365793,-209.01232 41.917788,-295.39704 4.4697834,-381.78176 4.4697834,-480 q 0,-98.21824 37.4480046,-184.60296 37.448005,-86.38472 101.644592,-150.28575 64.19658,-63.90103 150.98084,-101.17663 86.78426,-37.2756 185.45678,-37.2756 98.67252,0 185.45678,37.2756 86.78426,37.2756 150.98084,101.17663 64.19659,63.90103 101.6446,150.28575 37.448,86.38472 37.448,184.60296 0,98.21824 -37.448,184.60296 -37.44801,86.38472 -101.6446,150.28575 Q 752.24104,-81.210262 665.45678,-43.934663 578.67252,-6.659065 480,-6.659065 Z m 0,-94.668185 q 159.30263,0 269.86339,-110.05177 Q 860.42417,-321.43078 860.42417,-480 q 0,-158.56922 -110.56078,-268.62098 Q 639.30263,-858.67275 480,-858.67275 q -159.30263,0 -269.86339,110.05177 Q 99.575827,-638.56922 99.575827,-480 q 0,158.56922 110.560783,268.62098 Q 320.69737,-101.32725 480,-101.32725 Z M 480,-480 Z"
     id="path2"
     style="stroke-width:1.18609" />
  <path
     style="fill:#ff2020;fill-opacity:1;stroke:#ff2020;stroke-width:0.310292;stroke-opacity:1"
     d="M 11.2748,23.804757 C 10.023926,23.712936 8.9348494,23.486714 7.9151694,23.106899 5.2914565,22.129606 3.1072723,20.309326 1.7462714,17.965792 0.89465498,16.499378 0.42060512,15.102038 0.2004911,13.40935 c -0.0720999,-0.554452 -0.0720999,-2.264248 0,-2.8187 C 0.40676732,9.0043758 0.85377034,7.6309853 1.6003304,6.289726 2.5360117,4.608694 3.8014725,3.2355314 5.377423,2.1911688 5.9149193,1.8349768 6.1427899,1.7025877 6.6796797,1.4345785 8.0130467,0.76897727 9.2076731,0.41570072 10.713797,0.24160399 c 0.576797,-0.0666735 1.995871,-0.066656 2.572406,3.175e-5 1.358913,0.15718513 2.514019,0.47689813 3.68073,1.01876126 2.841547,1.3197181 4.963997,3.5670785 6.110868,6.4705038 0.363261,0.9196335 0.582267,1.7874384 0.721708,2.8597492 0.04049,0.311346 0.04982,0.575387 0.04982,1.40935 0,1.099358 -0.0201,1.358908 -0.167419,2.161916 -0.448093,2.442456 -1.780413,4.853708 -3.589465,6.496264 -0.91482,0.830624 -1.754345,1.4025 -2.861585,1.949281 -1.284589,0.634361 -2.497388,0.987868 -3.935071,1.146995 -0.37582,0.0416 -1.692962,0.07438 -2.02099,0.0503 z m 2.019465,-2.401719 c 1.166389,-0.155539 2.085359,-0.435099 3.070426,-0.934055 0.863332,-0.437295 1.580587,-0.960518 2.336837,-1.704677 1.608439,-1.582724 2.474797,-3.337745 2.758276,-5.587567 0.02339,-0.185657 0.03621,-0.602085 0.03621,-1.176739 0,-0.574654 -0.01281,-0.991082 -0.03621,-1.176739 C 21.217392,8.8993628 20.549052,7.3437926 19.36107,5.9384265 19.073586,5.5983377 18.455129,4.9778578 18.136148,4.7094995 16.699531,3.5008753 15.105842,2.8171363 13.176739,2.5817679 c -0.407294,-0.049694 -1.946184,-0.049694 -2.353478,0 C 8.5627277,2.8575739 6.7730687,3.7388812 5.1667977,5.3672607 3.6138896,6.941543 2.7633075,8.7420315 2.5320163,10.944493 c -0.054901,0.52279 -0.054901,1.588224 0,2.111014 0.236412,2.251224 1.1147936,4.072652 2.7402424,5.682215 0.8003521,0.79253 1.4906581,1.292011 2.4455631,1.769523 1.0706487,0.53539 2.0515626,0.803001 3.4611972,0.944275 0.287297,0.02879 1.794885,-0.0058 2.115246,-0.04848 z"
     id="path1236"
     transform="matrix(40,0,0,40,0,-960)" />
  <path
     style="fill:#ff2020;fill-opacity:1;stroke:#ff2020;stroke-width:0.310292;stroke-opacity:1"
     d="m 11.744847,17.881779 c -0.319957,-0.06297 -0.661193,-0.328599 -0.80739,-0.62851 -0.139814,-0.286818 -0.141194,-0.748751 -0.0031,-1.031046 0.226333,-0.46261 0.73312,-0.72371 1.249544,-0.643775 0.514084,0.07957 0.915326,0.479811 0.974599,0.97216 0.04998,0.415125 -0.05479,0.738812 -0.327701,1.012479 -0.284915,0.285704 -0.673754,0.399813 -1.085973,0.318692 z"
     id="path1238"
     transform="matrix(40,0,0,40,0,-960)" />
  <path
     style="fill:#ff2020;fill-opacity:1;stroke:#ff2020;stroke-width:0.310292;stroke-opacity:1"
     d="M 10.809578,9.6328392 V 6.0889396 H 12 13.190422 V 9.6328392 13.176739 H 12 10.809578 Z"
     id="path1240"
     transform="matrix(40,0,0,40,0,-960)" />
</svg>
